<svg width="14" height="17" viewBox="0 0 14 17" fill="none" xmlns="http://www.w3.org/2000/svg">
<g clip-path="url(#clip0_458_18453)">
<g clip-path="url(#clip1_458_18453)">
<g clip-path="url(#clip2_458_18453)">
<path d="M13.7078 12.4764C13.4654 13.0363 13.1785 13.5517 12.8461 14.0256C12.393 14.6716 12.022 15.1188 11.7361 15.3671C11.2929 15.7747 10.818 15.9834 10.3095 15.9953C9.94448 15.9953 9.50424 15.8914 8.99179 15.6807C8.47765 15.471 8.00516 15.3671 7.57313 15.3671C7.12003 15.3671 6.63408 15.471 6.11431 15.6807C5.59373 15.8914 5.17437 16.0012 4.85374 16.0121C4.36611 16.0329 3.88007 15.8182 3.39491 15.3671C3.08526 15.097 2.69795 14.634 2.23397 13.9781C1.73615 13.2777 1.32688 12.4655 1.00625 11.5395C0.662861 10.5393 0.490723 9.57078 0.490723 8.63312C0.490723 7.55903 0.722813 6.63265 1.18769 5.85635C1.55303 5.23279 2.03908 4.74091 2.6474 4.37982C3.25572 4.01872 3.91301 3.83471 4.62086 3.82294C5.00817 3.82294 5.51608 3.94274 6.14725 4.1782C6.77664 4.41444 7.18077 4.53425 7.35795 4.53425C7.49042 4.53425 7.93937 4.39416 8.70044 4.11488C9.42015 3.85588 10.0276 3.74864 10.5252 3.79088C11.8736 3.89971 12.8867 4.43126 13.5604 5.3889C12.3544 6.1196 11.7579 7.14303 11.7697 8.45593C11.7806 9.47857 12.1516 10.3296 12.8807 11.0053C13.2112 11.3189 13.5802 11.5612 13.9907 11.7334C13.9017 11.9916 13.8077 12.2389 13.7078 12.4764ZM10.6152 0.306963C10.6152 1.1085 10.3224 1.8569 9.73871 2.54961C9.03433 3.3731 8.18234 3.84896 7.25843 3.77387C7.24666 3.67771 7.23983 3.5765 7.23983 3.47015C7.23983 2.70067 7.57481 1.87718 8.16968 1.20386C8.46666 0.86295 8.84438 0.579485 9.30243 0.35336C9.75948 0.130609 10.1918 0.00742323 10.5984 -0.0136719C10.6103 0.0934817 10.6152 0.200652 10.6152 0.306963Z" fill="white"/>
</g>
</g>
</g>
<defs>
<clipPath id="clip0_458_18453">
<rect width="13.5" height="16.02" fill="white" transform="translate(0.490723 -0.00976562)"/>
</clipPath>
<clipPath id="clip1_458_18453">
<rect width="13.5" height="16.02" fill="white" transform="translate(0.490723 -0.00976562)"/>
</clipPath>
<clipPath id="clip2_458_18453">
<rect width="13.5" height="16.0272" fill="white" transform="translate(0.490723 -0.0136719)"/>
</clipPath>
</defs>
</svg>
