<svg width="27" height="27" viewBox="0 0 27 27" fill="none" xmlns="http://www.w3.org/2000/svg">
<path d="M16.4062 24.8828H9.84375C3.90469 24.8828 1.36719 22.3453 1.36719 16.4062V9.84375C1.36719 3.90469 3.90469 1.36719 9.84375 1.36719H16.4062C22.3453 1.36719 24.8828 3.90469 24.8828 9.84375V16.4062C24.8828 22.3453 22.3453 24.8828 16.4062 24.8828ZM9.84375 3.00781C4.80156 3.00781 3.00781 4.80156 3.00781 9.84375V16.4062C3.00781 21.4484 4.80156 23.2422 9.84375 23.2422H16.4062C21.4484 23.2422 23.2422 21.4484 23.2422 16.4062V9.84375C23.2422 4.80156 21.4484 3.00781 16.4062 3.00781H9.84375Z" fill="#FEC84D"/>
<path d="M9.49375 16.7664C9.03438 16.7664 8.60781 16.657 8.23594 16.4492C7.32813 15.9352 6.83594 14.918 6.83594 13.5836V2.66797C6.83594 2.21953 7.20781 1.84766 7.65625 1.84766C8.10469 1.84766 8.47656 2.21953 8.47656 2.66797V13.5836C8.47656 14.2945 8.68438 14.8195 9.04531 15.0164C9.42813 15.2352 10.0188 15.1258 10.6641 14.743L12.1078 13.8789C12.6984 13.5289 13.5406 13.5289 14.1313 13.8789L15.575 14.743C16.2312 15.1367 16.8219 15.2352 17.1938 15.0164C17.5547 14.8086 17.7625 14.2836 17.7625 13.5836V2.66797C17.7625 2.21953 18.1344 1.84766 18.5828 1.84766C19.0312 1.84766 19.4031 2.21953 19.4031 2.66797V13.5836C19.4031 14.918 18.9109 15.9352 18.0031 16.4492C17.0953 16.9633 15.9031 16.8539 14.7328 16.1539L13.2891 15.2898C13.2234 15.2461 13.0156 15.2461 12.95 15.2898L11.5063 16.1539C10.8281 16.5586 10.1281 16.7664 9.49375 16.7664Z" fill="#FEC84D"/>
<path d="M16.4062 24.8828H9.84375C3.90469 24.8828 1.36719 22.3453 1.36719 16.4062V9.84375C1.36719 3.90469 3.90469 1.36719 9.84375 1.36719H16.4062C22.3453 1.36719 24.8828 3.90469 24.8828 9.84375V16.4062C24.8828 22.3453 22.3453 24.8828 16.4062 24.8828ZM9.84375 3.00781C4.80156 3.00781 3.00781 4.80156 3.00781 9.84375V16.4062C3.00781 21.4484 4.80156 23.2422 9.84375 23.2422H16.4062C21.4484 23.2422 23.2422 21.4484 23.2422 16.4062V9.84375C23.2422 4.80156 21.4484 3.00781 16.4062 3.00781H9.84375Z" fill="#FEC84D"/>
<path d="M9.49375 16.7664C9.03438 16.7664 8.60781 16.657 8.23594 16.4492C7.32813 15.9352 6.83594 14.918 6.83594 13.5836V2.66797C6.83594 2.21953 7.20781 1.84766 7.65625 1.84766C8.10469 1.84766 8.47656 2.21953 8.47656 2.66797V13.5836C8.47656 14.2945 8.68438 14.8195 9.04531 15.0164C9.42813 15.2352 10.0188 15.1258 10.6641 14.743L12.1078 13.8789C12.6984 13.5289 13.5406 13.5289 14.1313 13.8789L15.575 14.743C16.2312 15.1367 16.8219 15.2352 17.1938 15.0164C17.5547 14.8086 17.7625 14.2836 17.7625 13.5836V2.66797C17.7625 2.21953 18.1344 1.84766 18.5828 1.84766C19.0312 1.84766 19.4031 2.21953 19.4031 2.66797V13.5836C19.4031 14.918 18.9109 15.9352 18.0031 16.4492C17.0953 16.9633 15.9031 16.8539 14.7328 16.1539L13.2891 15.2898C13.2234 15.2461 13.0156 15.2461 12.95 15.2898L11.5063 16.1539C10.8281 16.5586 10.1281 16.7664 9.49375 16.7664Z" fill="#FEC84D"/>
</svg>
