<svg width="27" height="27" viewBox="0 0 27 27" fill="none" xmlns="http://www.w3.org/2000/svg">
<path d="M14.2188 24.8828H9.84375C3.90469 24.8828 1.36719 22.3453 1.36719 16.4062V9.84375C1.36719 3.90469 3.90469 1.36719 9.84375 1.36719H16.4062C22.3453 1.36719 24.8828 3.90469 24.8828 9.84375V14.2188C24.8828 14.6672 24.5109 15.0391 24.0625 15.0391C23.6141 15.0391 23.2422 14.6672 23.2422 14.2188V9.84375C23.2422 4.80156 21.4484 3.00781 16.4062 3.00781H9.84375C4.80156 3.00781 3.00781 4.80156 3.00781 9.84375V16.4062C3.00781 21.4484 4.80156 23.2422 9.84375 23.2422H14.2188C14.6672 23.2422 15.0391 23.6141 15.0391 24.0625C15.0391 24.5109 14.6672 24.8828 14.2188 24.8828Z" fill="#FEC84D"/>
<path d="M14.2188 24.8828H9.84375C3.90469 24.8828 1.36719 22.3453 1.36719 16.4062V9.84375C1.36719 3.90469 3.90469 1.36719 9.84375 1.36719H16.4062C22.3453 1.36719 24.8828 3.90469 24.8828 9.84375V14.2188C24.8828 14.6672 24.5109 15.0391 24.0625 15.0391C23.6141 15.0391 23.2422 14.6672 23.2422 14.2188V9.84375C23.2422 4.80156 21.4484 3.00781 16.4062 3.00781H9.84375C4.80156 3.00781 3.00781 4.80156 3.00781 9.84375V16.4062C3.00781 21.4484 4.80156 23.2422 9.84375 23.2422H14.2188C14.6672 23.2422 15.0391 23.6141 15.0391 24.0625C15.0391 24.5109 14.6672 24.8828 14.2188 24.8828Z" fill="#FEC84D"/>
<path d="M7.65625 16.0676C7.20781 16.0676 6.83594 15.6957 6.83594 15.2473V11.7363C6.83594 11.2879 7.20781 10.916 7.65625 10.916C8.10469 10.916 8.47656 11.2879 8.47656 11.7363V15.2473C8.47656 15.7066 8.10469 16.0676 7.65625 16.0676Z" fill="#FEC84D"/>
<path d="M18.5938 16.0676C18.1453 16.0676 17.7734 15.6957 17.7734 15.2473V11.7363C17.7734 11.2879 18.1453 10.916 18.5938 10.916C19.0422 10.916 19.4141 11.2879 19.4141 11.7363V15.2473C19.4141 15.7066 19.0422 16.0676 18.5938 16.0676Z" fill="#FEC84D"/>
<path d="M14.2188 24.8828H9.84375C3.90469 24.8828 1.36719 22.3453 1.36719 16.4062V9.84375C1.36719 3.90469 3.90469 1.36719 9.84375 1.36719H16.4062C22.3453 1.36719 24.8828 3.90469 24.8828 9.84375V14.2188C24.8828 14.6672 24.5109 15.0391 24.0625 15.0391C23.6141 15.0391 23.2422 14.6672 23.2422 14.2188V9.84375C23.2422 4.80156 21.4484 3.00781 16.4062 3.00781H9.84375C4.80156 3.00781 3.00781 4.80156 3.00781 9.84375V16.4062C3.00781 21.4484 4.80156 23.2422 9.84375 23.2422H14.2188C14.6672 23.2422 15.0391 23.6141 15.0391 24.0625C15.0391 24.5109 14.6672 24.8828 14.2188 24.8828Z" fill="#FEC84D"/>
<path d="M19.2276 23.7886C19.0088 23.7886 18.801 23.7011 18.6479 23.548L16.9197 21.8308C16.6026 21.5136 16.5916 20.9886 16.9197 20.6714C17.2369 20.3542 17.7619 20.3433 18.0791 20.6714L19.1838 21.7652L22.3557 18.0574C22.651 17.7074 23.1651 17.6746 23.5151 17.9699C23.8541 18.2652 23.8979 18.7792 23.6026 19.1292L19.8619 23.5042C19.7088 23.6792 19.501 23.7777 19.2713 23.7886C19.2494 23.7886 19.2385 23.7886 19.2276 23.7886Z" fill="#FEC84D"/>
<path d="M13.125 15.5859C12.6766 15.5859 12.3047 15.2141 12.3047 14.7656V11.4844C12.3047 11.0359 12.6766 10.6641 13.125 10.6641C13.5734 10.6641 13.9453 11.0359 13.9453 11.4844V14.7656C13.9453 15.2141 13.5734 15.5859 13.125 15.5859Z" fill="#FEC84D"/>
</svg>
