<svg width="15" height="15" viewBox="0 0 15 15" fill="none" xmlns="http://www.w3.org/2000/svg">
<path d="M10.0427 8.2399V10.7039C10.0427 12.7572 9.22135 13.5786 7.16801 13.5786H4.70401C2.65068 13.5786 1.82935 12.7572 1.82935 10.7039V8.2399C1.82935 6.18657 2.65068 5.36523 4.70401 5.36523H7.16801C9.22135 5.36523 10.0427 6.18657 10.0427 8.2399Z" stroke="#FEC84D" stroke-width="1.056" stroke-linecap="round" stroke-linejoin="round"/>
<path d="M13.5626 4.71988V7.18388C13.5626 9.23721 12.7412 10.0585 10.6879 10.0585H10.0426V8.23988C10.0426 6.18655 9.22124 5.36521 7.16791 5.36521H5.34924V4.71988C5.34924 2.66655 6.17058 1.84521 8.22391 1.84521H10.6879C12.7412 1.84521 13.5626 2.66655 13.5626 4.71988Z" stroke="#FEC84D" stroke-width="1.056" stroke-linecap="round" stroke-linejoin="round"/>
</svg>
