<svg width="30" height="27" viewBox="0 0 30 27" fill="none" xmlns="http://www.w3.org/2000/svg">
<path d="M18.75 2.41602H7.5C6.83696 2.41602 6.20107 2.64429 5.73223 3.05062C5.26339 3.45695 5 4.00805 5 4.58268V21.916C5 22.4907 5.26339 23.0418 5.73223 23.4481C6.20107 23.8544 6.83696 24.0827 7.5 24.0827H22.5C23.163 24.0827 23.7989 23.8544 24.2678 23.4481C24.7366 23.0418 25 22.4907 25 21.916V7.83268L18.75 2.41602Z" stroke="#FEC84D" stroke-linecap="round" stroke-linejoin="round"/>
<path d="M17.5 2.41602V6.74935C17.5 7.32398 17.7634 7.87509 18.2322 8.28141C18.7011 8.68774 19.337 8.91602 20 8.91602H25" stroke="#FEC84D" stroke-linecap="round" stroke-linejoin="round"/>
<path d="M12.5 10H10" stroke="#FEC84D" stroke-linecap="round" stroke-linejoin="round"/>
<path d="M20 14.334H10" stroke="#FEC84D" stroke-linecap="round" stroke-linejoin="round"/>
<path d="M20 18.666H10" stroke="#FEC84D" stroke-linecap="round" stroke-linejoin="round"/>
</svg>
