<svg width="21" height="20" viewBox="0 0 21 20" fill="none" xmlns="http://www.w3.org/2000/svg">
<path fill-rule="evenodd" clip-rule="evenodd" d="M5.07397 3.16602H15.4073C16.2624 3.16602 17.0173 3.59535 17.468 4.25022L17.2605 4.42318L11.0408 9.60621C10.5773 9.99251 9.90397 9.99251 9.44041 9.60621L3.22078 4.42318L3.01322 4.25022C3.464 3.59535 4.21885 3.16602 5.07397 3.16602ZM2.57397 5.83674V14.3327C2.57397 15.7134 3.69326 16.8327 5.07397 16.8327H15.4073C16.788 16.8327 17.9073 15.7134 17.9073 14.3327V5.83674L12.0011 10.7585C10.9813 11.6084 9.49996 11.6084 8.48013 10.7585L2.57397 5.83674ZM1.07397 5.66602C1.07397 3.45688 2.86483 1.66602 5.07397 1.66602H15.4073C17.6164 1.66602 19.4073 3.45688 19.4073 5.66602V14.3327C19.4073 16.5418 17.6164 18.3327 15.4073 18.3327H5.07397C2.86483 18.3327 1.07397 16.5418 1.07397 14.3327V5.66602Z" fill="#A9A9CA"/>
</svg>
