<svg width="25" height="25" viewBox="0 0 25 25" fill="none" xmlns="http://www.w3.org/2000/svg">
<g clip-path="url(#clip0_637_6416)">
<path d="M2.67824 4.19727C1.96793 4.19727 1.28671 4.47944 0.784439 4.9817C0.282171 5.48397 0 6.16519 0 6.87551L0 18.9276C0 19.6379 0.282171 20.3191 0.784439 20.8214C1.28671 21.3237 1.96793 21.6058 2.67824 21.6058H8.03472V4.19727H2.67824Z" fill="#009A49"/>
<path d="M8.03503 4.19727H16.0698V21.6058H8.03503V4.19727Z" fill="#EEEEEE"/>
<path d="M21.4256 4.19727H16.0691V21.6058H21.4256C22.1359 21.6058 22.8171 21.3237 23.3194 20.8214C23.8216 20.3191 24.1038 19.6379 24.1038 18.9276V6.87551C24.1038 6.16519 23.8216 5.48397 23.3194 4.9817C22.8171 4.47944 22.1359 4.19727 21.4256 4.19727Z" fill="#009A49"/>
</g>
<defs>
<clipPath id="clip0_637_6416">
<rect width="24.1042" height="24.1042" fill="white" transform="translate(0 0.849609)"/>
</clipPath>
</defs>
</svg>
