<svg width="30" height="30" viewBox="0 0 30 30" fill="none" xmlns="http://www.w3.org/2000/svg">
<path d="M27.4495 21.9657C27.3289 21.4831 26.8462 21.1814 26.3636 21.3021C25.8809 21.4227 25.5793 21.9054 25.6879 22.388C25.7361 22.5931 25.7603 22.7983 25.7603 23.0154C25.7603 24.5116 24.5416 25.7303 23.0454 25.7303C21.5492 25.7303 20.3306 24.5116 20.3306 23.0154C20.3306 21.6882 21.2838 20.5902 22.5507 20.3488C22.43 20.6264 22.4421 20.9642 22.6352 21.2297C22.8162 21.471 23.0937 21.6037 23.3712 21.6037C23.5522 21.6037 23.7452 21.5434 23.9021 21.4348L25.3138 20.4092C25.3259 20.3971 25.3259 20.385 25.338 20.385C25.35 20.373 25.3621 20.373 25.3742 20.3609C25.4104 20.3247 25.4345 20.2885 25.4586 20.2403C25.4948 20.192 25.5431 20.1558 25.5672 20.0955C25.5913 20.0472 25.6034 19.9869 25.6275 19.9386C25.6396 19.8783 25.6637 19.83 25.6758 19.7697C25.6879 19.7093 25.6758 19.6611 25.6637 19.6008C25.6637 19.5404 25.6637 19.4801 25.6396 19.4198C25.6275 19.3594 25.5913 19.3112 25.5672 19.2629C25.5431 19.2146 25.531 19.1664 25.5069 19.1302C25.4948 19.1181 25.4828 19.1181 25.4707 19.106C25.4586 19.106 25.4586 19.094 25.4586 19.0819L24.252 17.6943C23.9262 17.3203 23.3471 17.272 22.973 17.6099C22.7076 17.8512 22.611 18.2011 22.7076 18.5269C20.3788 18.7079 18.5327 20.6384 18.5327 23.0154C18.5327 25.5131 20.5598 27.5402 23.0575 27.5402C25.5552 27.5402 27.5822 25.5131 27.5822 23.0154C27.5702 22.6655 27.534 22.3035 27.4495 21.9657Z" fill="white"/>
<path d="M2.5693 17.7422C2.5693 17.7784 2.54517 17.8266 2.54517 17.8628C3.65524 20.083 5.46515 21.905 7.6853 23.003C7.7215 23.003 7.76976 22.9788 7.80596 22.9788C7.39571 21.5792 7.082 20.1433 6.85274 18.7075C5.40482 18.4662 3.96896 18.1524 2.5693 17.7422Z" fill="white"/>
<path d="M23.1298 7.84734C21.9956 5.47033 20.0771 3.55183 17.7122 2.42969C18.1465 3.86555 18.5085 5.3376 18.7498 6.80966C20.2219 7.05098 21.694 7.4009 23.1298 7.84734Z" fill="white"/>
<path d="M2.44873 7.84651C3.89666 7.41214 5.36871 7.05016 6.84077 6.80884C7.08209 5.37298 7.38374 3.94918 7.79399 2.54952C7.75779 2.54952 7.70952 2.52539 7.67333 2.52539C5.40491 3.64753 3.55881 5.5419 2.44873 7.84651Z" fill="white"/>
<path d="M16.7952 6.55767C16.5056 4.98908 16.1436 3.4205 15.6248 1.90018C15.6006 1.81571 15.6006 1.74332 15.5886 1.64679C14.6957 1.4296 13.7545 1.29688 12.7893 1.29688C11.8119 1.29688 10.8828 1.4296 9.97786 1.65886C9.9658 1.74332 9.97786 1.81571 9.95373 1.91224C9.44696 3.43256 9.07291 4.98908 8.78333 6.55767C11.4499 6.26808 14.1286 6.26808 16.7952 6.55767Z" fill="white"/>
<path d="M6.58733 8.75195C5.00668 9.04154 3.46223 9.41559 1.92984 9.92236C1.84538 9.94649 1.77298 9.94649 1.68852 9.95856C1.45926 10.8514 1.32654 11.7926 1.32654 12.7579C1.32654 13.7352 1.45926 14.6643 1.68852 15.5693C1.77298 15.5813 1.84538 15.5693 1.94191 15.5934C3.46223 16.1002 5.01875 16.4742 6.5994 16.7638C6.29775 14.0972 6.29775 11.4185 6.58733 8.75195Z" fill="white"/>
<path d="M23.89 9.95856C23.8055 9.95856 23.7331 9.94649 23.6366 9.92236C22.1163 9.41559 20.5477 9.04154 18.9791 8.75195C19.2808 11.4185 19.2808 14.0972 18.9791 16.7517C20.5477 16.4622 22.1163 16.1002 23.6366 15.5813C23.7211 15.5572 23.7935 15.5693 23.89 15.5572C24.1072 14.6522 24.252 13.7232 24.252 12.7458C24.252 11.7926 24.1193 10.8635 23.89 9.95856Z" fill="white"/>
<path d="M8.78333 18.9613C9.07291 20.5419 9.43489 22.0985 9.95373 23.6188C9.97786 23.7032 9.9658 23.7756 9.97786 23.8722C10.8828 24.0894 11.8119 24.2221 12.7893 24.2221C13.7545 24.2221 14.6957 24.0894 15.5886 23.8601C15.6006 23.7756 15.6006 23.7032 15.6248 23.6067C16.1315 22.0864 16.5056 20.5299 16.7952 18.9492C15.4679 19.094 14.1286 19.2026 12.7893 19.2026C11.4499 19.2026 10.1106 19.1061 8.78333 18.9613Z" fill="white"/>
<path d="M8.50574 8.47461C8.14376 11.3222 8.14376 14.1939 8.50574 17.0536C11.3533 17.4155 14.225 17.4155 17.0847 17.0536C17.4467 14.206 17.4467 11.3343 17.0847 8.47461C14.225 8.11263 11.3533 8.11263 8.50574 8.47461Z" fill="white"/>
</svg>
