<svg width="14" height="14" viewBox="0 0 14 14" fill="none" xmlns="http://www.w3.org/2000/svg">
<g clip-path="url(#clip0_458_18432)">
<g clip-path="url(#clip1_458_18432)">
<path d="M2.98261 8.40899L2.51269 10.1632L0.795159 10.1996C0.281869 9.24753 -0.00927734 8.15828 -0.00927734 7.00075C-0.00927734 5.88145 0.262938 4.8259 0.745455 3.89648L2.27491 4.17682L2.94474 5.69674C2.80455 6.10546 2.72814 6.54421 2.72814 7.00075C2.72819 7.49624 2.81795 7.97096 2.98261 8.40899Z" fill="#FFC700"/>
<path d="M13.3728 5.73828C13.4504 6.14661 13.4908 6.56829 13.4908 6.99928C13.4908 7.48253 13.4399 7.95392 13.3432 8.40863C13.0145 9.95592 12.156 11.307 10.9666 12.2632L10.9662 12.2628L9.04024 12.1645L8.76764 10.4629C9.55686 10.0001 10.1737 9.27576 10.4986 8.40863H6.88916V5.73828H13.3728Z" fill="#518EF8"/>
<path d="M10.9662 12.2635L10.9666 12.2639C9.80981 13.1936 8.34034 13.75 6.74073 13.75C4.17017 13.75 1.93526 12.3132 0.795166 10.1988L2.98261 8.4082C3.55265 9.92951 5.0202 11.0125 6.74073 11.0125C7.48024 11.0125 8.17313 10.8126 8.76761 10.4636L10.9662 12.2635Z" fill="#01D676"/>
<path d="M11.0493 1.80398L8.86257 3.59421C8.24726 3.20961 7.51994 2.98744 6.74075 2.98744C4.98132 2.98744 3.48625 4.1201 2.94477 5.696L0.745483 3.89574C1.86889 1.72981 4.13198 0.25 6.74075 0.25C8.37854 0.25 9.88022 0.833402 11.0493 1.80398Z" fill="#C34646"/>
</g>
</g>
<defs>
<clipPath id="clip0_458_18432">
<rect width="13.5" height="13.5" fill="white" transform="translate(-0.00927734 0.25)"/>
</clipPath>
<clipPath id="clip1_458_18432">
<rect width="13.5" height="13.5" fill="white" transform="translate(-0.00927734 0.25)"/>
</clipPath>
</defs>
</svg>
