<svg width="27" height="27" viewBox="0 0 27 27" fill="none" xmlns="http://www.w3.org/2000/svg">
<path d="M13.1355 24.8715C12.4465 24.8715 11.7684 24.6418 11.2324 24.1824L9.5043 22.7059C9.3293 22.5527 8.8918 22.3996 8.66211 22.3996H6.74805C5.1293 22.3996 3.8168 21.0871 3.8168 19.4684V17.598C3.8168 17.3684 3.66367 16.9309 3.52148 16.7668L2.03398 15.0168C1.13711 13.9559 1.13711 12.2934 2.03398 11.2215L3.52148 9.47148C3.66367 9.30742 3.8168 8.86992 3.8168 8.64023V6.78086C3.8168 5.16211 5.1293 3.84961 6.74805 3.84961H8.64023C8.86992 3.84961 9.29648 3.68555 9.48242 3.53242L11.2105 2.05586C12.2824 1.14805 13.9559 1.14805 15.0277 2.05586L16.7559 3.53242C16.9309 3.68555 17.3793 3.83867 17.609 3.83867H19.4684C21.0871 3.83867 22.3996 5.15117 22.3996 6.76992V8.6293C22.3996 8.85898 22.5637 9.28555 22.7168 9.47148L24.1934 11.1996C25.1121 12.2824 25.1012 13.9559 24.1934 15.0168L22.7168 16.7449C22.5637 16.9309 22.4105 17.3574 22.4105 17.5871V19.4465C22.4105 21.0652 21.098 22.3777 19.4793 22.3777H17.6199C17.3902 22.3777 16.9637 22.5418 16.7668 22.6949L15.0387 24.1715C14.5027 24.6418 13.8137 24.8715 13.1355 24.8715ZM6.74805 5.49023C6.03711 5.49023 5.45742 6.06992 5.45742 6.78086V8.64023C5.45742 9.26367 5.17305 10.0512 4.76836 10.5324L3.28086 12.2824C2.90898 12.7309 2.90898 13.5184 3.28086 13.9559L4.75742 15.6949C5.15117 16.1434 5.44648 16.9637 5.44648 17.5871V19.4574C5.44648 20.1684 6.02617 20.748 6.73711 20.748H8.64023C9.25273 20.748 10.0621 21.0434 10.5434 21.448L12.2824 22.9355C12.7309 23.3184 13.5184 23.3184 13.9668 22.9355L15.6949 21.459C16.1871 21.0434 16.9855 20.759 17.598 20.759H19.4574C20.1684 20.759 20.748 20.1793 20.748 19.4684V17.609C20.748 16.9965 21.0434 16.198 21.448 15.7059L22.9355 13.9668C23.3184 13.5184 23.3184 12.7309 22.9355 12.2824L21.459 10.5543C21.0434 10.0621 20.759 9.26367 20.759 8.65117V6.78086C20.759 6.06992 20.1793 5.49023 19.4684 5.49023H17.609C16.9855 5.49023 16.1762 5.19492 15.6949 4.79023L13.9559 3.30273C13.5074 2.91992 12.7309 2.91992 12.2715 3.30273L10.5543 4.79023C10.0621 5.19492 9.26367 5.49023 8.64023 5.49023H6.74805Z" fill="#FEC84D"/>
<path d="M13.125 18.4512C12.5234 18.4512 12.0312 17.959 12.0312 17.3574C12.0312 16.7559 12.5125 16.2637 13.125 16.2637C13.7266 16.2637 14.2188 16.7559 14.2188 17.3574C14.2188 17.959 13.7375 18.4512 13.125 18.4512Z" fill="#FEC84D"/>
<path d="M13.125 15.0066C12.6766 15.0066 12.3047 14.6348 12.3047 14.1863V8.89258C12.3047 8.44414 12.6766 8.07227 13.125 8.07227C13.5734 8.07227 13.9453 8.44414 13.9453 8.89258V14.1754C13.9453 14.6348 13.5844 15.0066 13.125 15.0066Z" fill="#FEC84D"/>
</svg>
