<svg width="106" height="106" viewBox="0 0 106 106" fill="none" xmlns="http://www.w3.org/2000/svg">
<g filter="url(#filter0_d_175_155)">
<path d="M53.049 22.0063H52.951C41.104 22.0063 31.5 31.6103 31.5 43.4574V43.5553C31.5 55.4024 41.104 65.0063 52.951 65.0063H53.049C64.896 65.0063 74.5 55.4024 74.5 43.5553V43.4574C74.5 31.6103 64.896 22.0063 53.049 22.0063Z" fill="url(#paint0_linear_175_155)"/>
<path d="M59.6534 30.7544H46.348C42.6722 30.7544 39.6818 33.7448 39.6818 37.4207V49.5932C39.6818 53.269 42.6722 56.2594 46.348 56.2594H59.6534C63.3293 56.2594 66.3197 53.269 66.3197 49.5932V37.4207C66.3197 33.7448 63.3293 30.7544 59.6534 30.7544ZM42.0334 37.4207C42.0334 35.0419 43.9693 33.106 46.348 33.106H59.6534C62.0322 33.106 63.968 35.0419 63.968 37.4207V49.5932C63.968 51.9719 62.0322 53.9078 59.6534 53.9078H46.348C43.9693 53.9078 42.0334 51.9719 42.0334 49.5932V37.4207Z" fill="#CACACA"/>
<path d="M53.0008 49.7074C56.419 49.7074 59.2015 46.9264 59.2015 43.5067C59.2015 40.0869 56.4206 37.3059 53.0008 37.3059C49.5811 37.3059 46.8 40.0869 46.8 43.5067C46.8 46.9264 49.5811 49.7074 53.0008 49.7074ZM53.0008 39.6591C55.1235 39.6591 56.8499 41.3855 56.8499 43.5082C56.8499 45.6308 55.1235 47.3573 53.0008 47.3573C50.8781 47.3573 49.1517 45.6308 49.1517 43.5082C49.1517 41.3855 50.8781 39.6591 53.0008 39.6591Z" fill="#CACACA"/>
<path d="M59.7759 38.3087C60.6964 38.3087 61.4466 37.5598 61.4466 36.6375C61.4466 35.7153 60.6979 34.9663 59.7759 34.9663C58.8539 34.9663 58.1052 35.7153 58.1052 36.6375C58.1052 37.5598 58.8539 38.3087 59.7759 38.3087Z" fill="#CACACA"/>
</g>
<defs>
<filter id="filter0_d_175_155" x="0.493538" y="0.043437" width="105.013" height="105.013" filterUnits="userSpaceOnUse" color-interpolation-filters="sRGB">
<feFlood flood-opacity="0" result="BackgroundImageFix"/>
<feColorMatrix in="SourceAlpha" type="matrix" values="0 0 0 0 0 0 0 0 0 0 0 0 0 0 0 0 0 0 127 0" result="hardAlpha"/>
<feOffset dy="9.04355"/>
<feGaussianBlur stdDeviation="15.5032"/>
<feComposite in2="hardAlpha" operator="out"/>
<feColorMatrix type="matrix" values="0 0 0 0 0.838969 0 0 0 0 0.758454 0 0 0 0 1 0 0 0 0.2 0"/>
<feBlend mode="normal" in2="BackgroundImageFix" result="effect1_dropShadow_175_155"/>
<feBlend mode="normal" in="SourceGraphic" in2="effect1_dropShadow_175_155" result="shape"/>
</filter>
<linearGradient id="paint0_linear_175_155" x1="37.7821" y1="58.7242" x2="68.2179" y2="28.29" gradientUnits="userSpaceOnUse">
<stop stop-color="#FAAD4F"/>
<stop offset="0.35" stop-color="#DD2A7B"/>
<stop offset="0.62" stop-color="#9537B0"/>
<stop offset="1" stop-color="#515BD4"/>
</linearGradient>
</defs>
</svg>
