<svg width="27" height="27" viewBox="0 0 27 27" fill="none" xmlns="http://www.w3.org/2000/svg">
<path d="M16.4062 12.8516C15.9578 12.8516 15.5859 12.4797 15.5859 12.0312V10.9375C15.5859 9.34063 15.1922 8.47656 13.125 8.47656C11.0578 8.47656 10.6641 9.34063 10.6641 10.9375V12.0312C10.6641 12.4797 10.2922 12.8516 9.84375 12.8516C9.39531 12.8516 9.02344 12.4797 9.02344 12.0312V10.9375C9.02344 9.92031 9.02344 6.83594 13.125 6.83594C17.2266 6.83594 17.2266 9.92031 17.2266 10.9375V12.0312C17.2266 12.4797 16.8547 12.8516 16.4062 12.8516Z" fill="#FEC84D"/>
<path d="M13.125 16.7891C12.3156 16.7891 11.6484 16.1219 11.6484 15.3125C11.6484 14.5031 12.3156 13.8359 13.125 13.8359C13.9343 13.8359 14.6015 14.5031 14.6015 15.3125C14.6015 16.1219 13.9343 16.7891 13.125 16.7891ZM13.125 15.1485C13.0375 15.1485 12.9609 15.225 12.9609 15.3125C12.9609 15.4984 13.2891 15.4984 13.2891 15.3125C13.2891 15.225 13.2125 15.1485 13.125 15.1485Z" fill="#FEC84D"/>
<path d="M15.8594 19.4141H10.3906C7.76562 19.4141 6.83594 18.4844 6.83594 15.8594V14.7656C6.83594 12.1406 7.76562 11.2109 10.3906 11.2109H15.8594C18.4844 11.2109 19.4141 12.1406 19.4141 14.7656V15.8594C19.4141 18.4844 18.4844 19.4141 15.8594 19.4141ZM10.3906 12.8516C8.65156 12.8516 8.47656 13.0266 8.47656 14.7656V15.8594C8.47656 17.5984 8.65156 17.7734 10.3906 17.7734H15.8594C17.5984 17.7734 17.7734 17.5984 17.7734 15.8594V14.7656C17.7734 13.0266 17.5984 12.8516 15.8594 12.8516H10.3906Z" fill="#FEC84D"/>
<path d="M13.125 24.8828C6.63906 24.8828 1.36719 19.6109 1.36719 13.125C1.36719 6.63906 6.63906 1.36719 13.125 1.36719C19.6109 1.36719 24.8828 6.63906 24.8828 13.125C24.8828 19.6109 19.6109 24.8828 13.125 24.8828ZM13.125 3.00781C7.54688 3.00781 3.00781 7.54688 3.00781 13.125C3.00781 18.7031 7.54688 23.2422 13.125 23.2422C18.7031 23.2422 23.2422 18.7031 23.2422 13.125C23.2422 7.54688 18.7031 3.00781 13.125 3.00781Z" fill="#FEC84D"/>
</svg>
