<svg width="16" height="17" viewBox="0 0 16 17" fill="none" xmlns="http://www.w3.org/2000/svg">
<path d="M8.16187 11.4936V10.2012" stroke="white" stroke-width="1.16318" stroke-linecap="round"/>
<path d="M3.16501 13.0082C3.31033 14.0876 4.20432 14.9332 5.29224 14.9832C6.20767 15.0253 7.13759 15.0472 8.16164 15.0472C9.18569 15.0472 10.1156 15.0253 11.031 14.9832C12.119 14.9332 13.0129 14.0876 13.1583 13.0082C13.2531 12.3039 13.3313 11.582 13.3313 10.8469C13.3313 10.1117 13.2531 9.38985 13.1583 8.68548C13.0129 7.60611 12.119 6.76053 11.031 6.71052C10.1156 6.66844 9.18569 6.64648 8.16164 6.64648C7.13759 6.64648 6.20767 6.66844 5.29224 6.71052C4.20432 6.76053 3.31033 7.60611 3.16501 8.68548C3.07016 9.38985 2.99194 10.1117 2.99194 10.8469C2.99194 11.582 3.07016 12.3039 3.16501 13.0082Z" stroke="white" stroke-width="1.16318"/>
<path d="M5.25391 6.64458V5.02905C5.25391 3.42303 6.55584 2.12109 8.16186 2.12109C9.76789 2.12109 11.0698 3.42303 11.0698 5.02905V6.64458" stroke="white" stroke-width="1.16318" stroke-linecap="round" stroke-linejoin="round"/>
</svg>
