<svg width="29" height="30" viewBox="0 0 29 30" fill="none" xmlns="http://www.w3.org/2000/svg">
<path fill-rule="evenodd" clip-rule="evenodd" d="M9.03948 1.89653C10.7423 1.19117 12.5675 0.828125 14.4107 0.828125C16.2539 0.828125 18.0791 1.19117 19.782 1.89653C21.4848 2.60189 23.0321 3.63576 24.3354 4.93909C25.6388 6.24243 26.6726 7.78972 27.378 9.4926C28.0833 11.1955 28.4464 13.0206 28.4464 14.8638C28.4464 16.7071 28.0833 18.5322 27.378 20.2351C26.6726 21.9379 25.6388 23.4852 24.3354 24.7886C23.0321 26.0919 21.4848 27.1257 19.782 27.8311C18.0791 28.5365 16.2539 28.8996 14.4107 28.8996C12.5675 28.8996 10.7423 28.5365 9.03948 27.8311C7.33659 27.1257 5.7893 26.0919 4.48596 24.7886C3.18263 23.4852 2.14877 21.9379 1.44341 20.2351C0.738044 18.5322 0.375 16.7071 0.375 14.8638C0.375 13.0206 0.738044 11.1955 1.44341 9.4926C2.14877 7.78972 3.18263 6.24243 4.48596 4.93909C5.7893 3.63576 7.33659 2.60189 9.03948 1.89653ZM14.4107 3.38007C12.9026 3.38007 11.4093 3.67711 10.0161 4.25423C8.62279 4.83134 7.35683 5.67722 6.29047 6.74359C5.2241 7.80996 4.37821 9.07592 3.8011 10.4692C3.22398 11.8624 2.92695 13.3557 2.92695 14.8638C2.92695 16.3719 3.22398 17.8652 3.8011 19.2585C4.37821 20.6518 5.2241 21.9177 6.29047 22.9841C7.35683 24.0504 8.62279 24.8964 10.0161 25.4734C11.4093 26.0506 12.9026 26.3476 14.4107 26.3476C15.9188 26.3476 17.4121 26.0506 18.8054 25.4734C20.1986 24.8964 21.4646 24.0504 22.531 22.9841C23.5973 21.9177 24.4432 20.6518 25.0203 19.2585C25.5974 17.8652 25.8945 16.3719 25.8945 14.8638C25.8945 13.3557 25.5974 11.8624 25.0203 10.4692C24.4432 9.07592 23.5973 7.80996 22.531 6.74359C21.4646 5.67722 20.1986 4.83134 18.8054 4.25423C17.4121 3.67711 15.9188 3.38007 14.4107 3.38007Z" fill="white"/>
<path fill-rule="evenodd" clip-rule="evenodd" d="M15.8091 7.91372C16.5463 7.8931 17.2757 8.07118 17.9207 8.42951C18.5725 8.79162 19.1135 9.32418 19.4859 9.97017C19.8379 10.5807 19.6283 11.3609 19.0178 11.7129C18.4073 12.0648 17.627 11.8552 17.275 11.2447C17.1338 10.9997 16.9286 10.7976 16.6813 10.6603C16.4341 10.523 16.1542 10.4554 15.8714 10.4649C15.8572 10.4654 15.8429 10.4657 15.8286 10.4657H12.9931C12.5794 10.4657 12.1828 10.63 11.8903 10.9225C11.5979 11.2149 11.4335 11.6116 11.4335 12.0252C11.4335 12.4387 11.5979 12.8354 11.8903 13.128C12.1828 13.4204 12.5794 13.5847 12.9931 13.5847H15.8286C16.919 13.5847 17.9648 14.0179 18.7359 14.7889C19.5069 15.56 19.9401 16.6058 19.9401 17.6962C19.9401 18.7866 19.5069 19.8324 18.7359 20.6035C17.9648 21.3744 16.919 21.8077 15.8286 21.8077H13.0126C12.2752 21.8283 11.5459 21.6502 10.901 21.2919C10.2491 20.9297 9.70808 20.3972 9.33567 19.7512C8.98372 19.1407 9.19333 18.3604 9.80386 18.0085C10.4144 17.6566 11.1946 17.8661 11.5465 18.4767C11.6878 18.7216 11.8931 18.9237 12.1403 19.0611C12.3875 19.1985 12.6674 19.2659 12.9501 19.2564C12.9645 19.2559 12.9788 19.2557 12.9931 19.2557H15.8286C16.2422 19.2557 16.6389 19.0914 16.9313 18.7989C17.2238 18.5065 17.3881 18.1098 17.3881 17.6962C17.3881 17.2826 17.2238 16.8859 16.9313 16.5934C16.6389 16.301 16.2422 16.1366 15.8286 16.1366H12.9931C11.9027 16.1366 10.8569 15.7035 10.0858 14.9324C9.31477 14.1614 8.88159 13.1156 8.88159 12.0252C8.88159 10.9347 9.31477 9.88899 10.0858 9.11793C10.8569 8.34688 11.9027 7.91372 12.9931 7.91372H15.8091Z" fill="white"/>
<path fill-rule="evenodd" clip-rule="evenodd" d="M14.4107 6.5C15.1155 6.5 15.6867 7.07128 15.6867 7.77597V21.9535C15.6867 22.6581 15.1155 23.2295 14.4107 23.2295C13.706 23.2295 13.1348 22.6581 13.1348 21.9535V7.77597C13.1348 7.07128 13.706 6.5 14.4107 6.5Z" fill="white"/>
</svg>
