<svg width="27" height="27" viewBox="0 0 27 27" fill="none" xmlns="http://www.w3.org/2000/svg">
<path d="M13.125 17.2266C10.8609 17.2266 9.02344 15.3891 9.02344 13.125C9.02344 10.8609 10.8609 9.02344 13.125 9.02344C15.3891 9.02344 17.2266 10.8609 17.2266 13.125C17.2266 15.3891 15.3891 17.2266 13.125 17.2266ZM13.125 10.6641C11.7687 10.6641 10.6641 11.7687 10.6641 13.125C10.6641 14.4812 11.7687 15.5859 13.125 15.5859C14.4812 15.5859 15.5859 14.4812 15.5859 13.125C15.5859 11.7687 14.4812 10.6641 13.125 10.6641Z" fill="#FEC84D"/>
<path d="M16.6359 24.2706C16.4062 24.2706 16.1766 24.2378 15.9469 24.1831C15.2688 23.9972 14.7 23.5706 14.3391 22.9691L14.2078 22.7503C13.5625 21.6347 12.6766 21.6347 12.0312 22.7503L11.9109 22.9581C11.55 23.5706 10.9812 24.0081 10.3031 24.1831C9.61406 24.3691 8.90313 24.2706 8.30156 23.9097L6.42031 22.8269C5.75312 22.4441 5.27188 21.8206 5.06406 21.0659C4.86719 20.3113 4.96562 19.5347 5.34844 18.8675C5.66562 18.3097 5.75313 17.8066 5.56719 17.4894C5.38125 17.1722 4.91094 16.9862 4.26562 16.9862C2.66875 16.9862 1.36719 15.6847 1.36719 14.0878V12.1628C1.36719 10.5659 2.66875 9.26438 4.26562 9.26438C4.91094 9.26438 5.38125 9.07844 5.56719 8.76125C5.75313 8.44406 5.67656 7.94094 5.34844 7.38313C4.96562 6.71594 4.86719 5.92844 5.06406 5.18469C5.26094 4.43 5.74219 3.80656 6.42031 3.42375L8.3125 2.34094C9.54844 1.60813 11.1781 2.03469 11.9219 3.2925L12.0531 3.51125C12.6984 4.62688 13.5844 4.62688 14.2297 3.51125L14.35 3.30344C15.0938 2.03469 16.7234 1.60813 17.9703 2.35188L19.8516 3.43469C20.5187 3.8175 21 4.44094 21.2078 5.19563C21.4047 5.95031 21.3062 6.72688 20.9234 7.39406C20.6062 7.95188 20.5188 8.455 20.7047 8.77219C20.8906 9.08938 21.3609 9.27531 22.0063 9.27531C23.6031 9.27531 24.9047 10.5769 24.9047 12.1738V14.0988C24.9047 15.6956 23.6031 16.9972 22.0063 16.9972C21.3609 16.9972 20.8906 17.1831 20.7047 17.5003C20.5188 17.8175 20.5953 18.3206 20.9234 18.8784C21.3062 19.5456 21.4156 20.3331 21.2078 21.0769C21.0109 21.8316 20.5297 22.455 19.8516 22.8378L17.9594 23.9206C17.5438 24.1503 17.0953 24.2706 16.6359 24.2706ZM13.125 20.2238C14.0984 20.2238 15.0063 20.8363 15.6297 21.9191L15.75 22.1269C15.8812 22.3566 16.1 22.5206 16.3625 22.5863C16.625 22.6519 16.8875 22.6191 17.1063 22.4878L18.9984 21.3941C19.2828 21.23 19.5016 20.9566 19.5891 20.6284C19.6766 20.3003 19.6328 19.9613 19.4688 19.6769C18.8453 18.605 18.7688 17.5003 19.25 16.6581C19.7313 15.8159 20.7266 15.3347 21.9734 15.3347C22.6734 15.3347 23.2312 14.7769 23.2312 14.0769V12.1519C23.2312 11.4628 22.6734 10.8941 21.9734 10.8941C20.7266 10.8941 19.7313 10.4128 19.25 9.57063C18.7688 8.72844 18.8453 7.62375 19.4688 6.55188C19.6328 6.2675 19.6766 5.92844 19.5891 5.60031C19.5016 5.27219 19.2937 5.00969 19.0094 4.83469L17.1172 3.75188C16.6469 3.4675 16.0234 3.63156 15.7391 4.11281L15.6187 4.32063C14.9953 5.40344 14.0875 6.01594 13.1141 6.01594C12.1406 6.01594 11.2328 5.40344 10.6094 4.32063L10.4891 4.10188C10.2156 3.6425 9.60313 3.47844 9.13281 3.75188L7.24062 4.84563C6.95625 5.00969 6.7375 5.28313 6.65 5.61125C6.5625 5.93938 6.60625 6.27844 6.77031 6.56281C7.39375 7.63469 7.47031 8.73938 6.98906 9.58156C6.50781 10.4238 5.5125 10.905 4.26562 10.905C3.56563 10.905 3.00781 11.4628 3.00781 12.1628V14.0878C3.00781 14.7769 3.56563 15.3456 4.26562 15.3456C5.5125 15.3456 6.50781 15.8269 6.98906 16.6691C7.47031 17.5113 7.39375 18.6159 6.77031 19.6878C6.60625 19.9722 6.5625 20.3113 6.65 20.6394C6.7375 20.9675 6.94531 21.23 7.22969 21.405L9.12188 22.4878C9.35156 22.63 9.625 22.6628 9.87656 22.5972C10.1391 22.5316 10.3578 22.3566 10.5 22.1269L10.6203 21.9191C11.2437 20.8472 12.1516 20.2238 13.125 20.2238Z" fill="#FEC84D"/>
</svg>
