<svg width="44" height="45" viewBox="0 0 44 45" fill="none" xmlns="http://www.w3.org/2000/svg">
<path d="M0.845093 33.0776V33.0795C0.870848 34.0348 0.878792 34.9956 1.03993 35.945C1.21068 36.9495 1.45477 37.9289 1.92045 38.8405C2.55002 40.0744 3.41466 41.1164 4.50607 41.9676C5.28967 42.5788 6.14569 43.0639 7.09328 43.37C8.47502 43.8157 9.90049 43.9865 11.3468 43.9949C12.2491 44.0006 13.1509 44.0231 14.0536 44.0194C20.609 43.9918 27.1645 44.0667 33.7201 43.9789C34.59 43.9671 35.4457 43.861 36.2995 43.7049C37.9358 43.4054 39.382 42.7071 40.6194 41.6033C42.0614 40.3171 43.0343 38.743 43.4735 36.8433C43.7609 35.6015 43.8328 34.3417 43.8451 33.0774V32.8252C43.8451 32.7274 43.8079 11.3439 43.8045 11.0613C43.7948 10.2848 43.7376 9.51428 43.5921 8.75033C43.415 7.81938 43.1649 6.91227 42.7191 6.07005C42.2484 5.18025 41.6588 4.38017 40.9296 3.68102C39.8125 2.60985 38.5234 1.85233 37.0227 1.45163C35.6672 1.0898 34.2844 1.00969 32.8914 1.01095C32.8892 1.01061 32.8839 0.996481 32.8836 0.989624H11.7999C11.7995 0.996815 11.7992 1.00401 11.7987 1.01095C11.0082 1.02541 10.2165 1.01948 9.42996 1.11698C8.56834 1.22409 7.71499 1.3854 6.89944 1.6866C5.61487 2.16173 4.49879 2.90177 3.54544 3.88974C2.46532 5.00908 1.70396 6.3036 1.29999 7.81102C0.939584 9.15597 0.861148 10.5277 0.859225 11.9091" fill="#FFFC00"/>
<path d="M22.4878 33.3979C22.4221 33.3979 22.3593 33.3955 22.3116 33.3932C22.2737 33.3965 22.2346 33.3979 22.1955 33.3979C20.8139 33.3979 19.8902 32.7448 19.075 32.1681C18.4907 31.7553 17.9397 31.3657 17.2941 31.2583C16.9771 31.2057 16.6617 31.179 16.357 31.179C15.8079 31.179 15.374 31.2642 15.0572 31.3262C14.8622 31.3641 14.6941 31.3968 14.5642 31.3968C14.4281 31.3968 14.2628 31.3667 14.1939 31.1314C14.1393 30.9458 14.1001 30.766 14.0623 30.5929C13.9677 30.1602 13.8991 29.8961 13.7371 29.871C12.0044 29.6037 10.9806 29.2098 10.7766 28.7329C10.7553 28.6828 10.7433 28.6323 10.7407 28.5824C10.7327 28.4403 10.8331 28.3156 10.9732 28.2924C12.3493 28.0658 13.5729 27.3385 14.6101 26.1299C15.4136 25.1943 15.8081 24.3004 15.8505 24.2017C15.8524 24.1972 15.8545 24.1925 15.8567 24.1883C16.0567 23.7826 16.0964 23.4321 15.9753 23.1467C15.752 22.6202 15.0126 22.3856 14.5234 22.2303C14.4017 22.1919 14.2866 22.1554 14.195 22.119C13.7613 21.9477 13.0481 21.5858 13.1431 21.0862C13.2123 20.7219 13.6941 20.4683 14.0835 20.4683C14.1916 20.4683 14.2874 20.4872 14.3681 20.5251C14.8081 20.7312 15.204 20.8357 15.5444 20.8357C15.9678 20.8357 16.1723 20.6745 16.2217 20.6287C16.2095 20.4029 16.1946 20.1641 16.1802 19.9382C16.1802 19.938 16.1799 19.9353 16.1799 19.9353C16.0806 18.3543 15.9566 16.3869 16.4599 15.2587C17.9661 11.8815 21.1604 11.6189 22.1032 11.6189C22.1284 11.6189 22.5142 11.6151 22.5142 11.6151C22.5316 11.6147 22.5505 11.6145 22.5701 11.6145C23.5155 11.6145 26.7165 11.8774 28.2236 15.2566C28.7269 16.3856 28.6028 18.3547 28.5031 19.9373L28.4984 20.013C28.4848 20.2279 28.4721 20.4313 28.4615 20.6285C28.508 20.6713 28.6952 20.8191 29.0759 20.8341C29.4004 20.8216 29.7734 20.7176 30.1841 20.5253C30.3111 20.4657 30.4516 20.4534 30.5471 20.4534C30.6914 20.4534 30.8381 20.4814 30.9605 20.5325L30.967 20.535C31.3155 20.6587 31.5438 20.9059 31.5487 21.1657C31.5531 21.4078 31.3732 21.7696 30.4882 22.1191C30.3976 22.155 30.2819 22.1917 30.1598 22.2305C29.6701 22.3859 28.9313 22.6204 28.708 23.1466C28.5867 23.432 28.6266 23.7824 28.8266 24.1879C28.8288 24.1924 28.8308 24.1969 28.8329 24.2015C28.8945 24.3459 30.3849 27.7442 33.7102 28.2921C33.8503 28.3154 33.9508 28.4402 33.9428 28.5821C33.9398 28.6331 33.9275 28.6841 33.906 28.7339C33.7035 29.2082 32.6797 29.6015 30.9465 29.8692C30.7838 29.8944 30.7152 30.1573 30.6215 30.5877C30.5827 30.7655 30.5433 30.9397 30.4894 31.1228C30.439 31.2951 30.3268 31.3792 30.1466 31.3792H30.1194C30.0021 31.3792 29.836 31.3579 29.6264 31.3169C29.26 31.2456 28.8491 31.1792 28.3266 31.1792C28.0219 31.1792 27.7066 31.206 27.3892 31.2585C26.7443 31.3659 26.1933 31.7549 25.6101 32.1672C24.7933 32.7447 23.8693 33.3979 22.4878 33.3979Z" fill="#CACACA"/>
<path d="M22.569 11.8924C23.4591 11.8924 26.524 12.1315 27.9684 15.3697C28.444 16.436 28.3221 18.3675 28.2243 19.9191C28.209 20.1654 28.1939 20.404 28.1816 20.6319L28.1764 20.7299L28.2418 20.8029C28.2682 20.8322 28.5154 21.0905 29.0653 21.1118L29.0742 21.1123L29.0834 21.1121C29.4469 21.0982 29.8564 20.9853 30.3011 20.777C30.3666 20.7463 30.4538 20.7314 30.546 20.7314C30.6511 20.7314 30.7628 20.7511 30.855 20.7899L30.8689 20.7955C31.1021 20.8772 31.2669 21.0312 31.2694 21.1706C31.2708 21.2495 31.2118 21.5334 30.3853 21.8599C30.3045 21.8918 30.1981 21.9257 30.0749 21.9646C29.537 22.1354 28.7243 22.3931 28.4508 23.0376C28.2968 23.4007 28.339 23.8291 28.576 24.3109C28.6735 24.5385 30.209 27.9971 33.664 28.5664C33.6633 28.5828 33.6591 28.6007 33.6499 28.6218C33.5913 28.7597 33.2191 29.2362 30.9029 29.5936C30.5405 29.6492 30.4517 30.0554 30.3488 30.5277C30.3116 30.6968 30.2738 30.8675 30.2218 31.0438C30.2059 31.097 30.2029 31.1 30.1459 31.1C30.138 31.1 30.1287 31.1 30.1186 31.1C30.0159 31.1 29.86 31.0787 29.6793 31.0433C29.3502 30.9792 28.9006 30.9005 28.3258 30.9005C28.005 30.9005 27.6745 30.9284 27.3429 30.9838C26.6341 31.1017 26.0577 31.5093 25.4473 31.9409C24.6275 32.5201 23.7802 33.1196 22.4873 33.1196C22.4309 33.1196 22.3758 33.1177 22.3205 33.1149L22.306 33.1143L22.2914 33.1154C22.2597 33.1182 22.2277 33.1196 22.1951 33.1196C20.9025 33.1196 20.0548 32.5203 19.2353 31.9409C18.6247 31.5093 18.048 31.1017 17.3394 30.9838C17.0081 30.9286 16.6773 30.9005 16.3567 30.9005C15.782 30.9005 15.3319 30.9885 15.0034 31.0527C14.8227 31.088 14.6662 31.1183 14.5638 31.1183C14.48 31.1183 14.4784 31.1134 14.4606 31.0528C14.4087 30.8764 14.3707 30.7017 14.3337 30.5328C14.2305 30.0601 14.1416 29.6516 13.7794 29.596C11.4634 29.2383 11.0911 28.761 11.0323 28.6234C11.0232 28.6017 11.019 28.5832 11.0181 28.5669C14.4731 27.998 16.0082 24.5394 16.106 24.3109C16.3435 23.8295 16.3856 23.4011 16.2312 23.0376C15.9576 22.3935 15.1451 22.1354 14.6076 21.9649C14.484 21.9258 14.3776 21.8918 14.2967 21.8599C13.5987 21.5841 13.384 21.3063 13.4159 21.1379C13.4529 20.9438 13.7895 20.7464 14.0832 20.7464C14.1492 20.7464 14.2071 20.757 14.2499 20.7771C14.7269 21.0006 15.1623 21.114 15.5443 21.114C16.1447 21.114 16.4119 20.8346 16.4406 20.8027L16.5057 20.73L16.5005 20.6325C16.4884 20.4047 16.4734 20.1661 16.4576 19.9204C16.3602 18.3684 16.2382 16.4381 16.7137 15.3718C18.1527 12.1455 21.2026 11.8968 22.103 11.8968C22.1251 11.8968 22.5166 11.8928 22.5166 11.8928C22.5326 11.8927 22.5504 11.8924 22.569 11.8924ZM22.569 11.3359H22.568C22.5475 11.3359 22.5282 11.3359 22.5099 11.3362C22.3636 11.3377 22.1231 11.34 22.1014 11.3402C21.574 11.3402 20.5187 11.4148 19.3851 11.9151C18.7369 12.201 18.1539 12.5876 17.6524 13.0641C17.0543 13.6319 16.5672 14.3319 16.2046 15.1451C15.6737 16.3357 15.7997 18.3411 15.9009 19.9527L15.9013 19.9552C15.9121 20.1278 15.9235 20.308 15.9339 20.4837C15.856 20.5194 15.7298 20.5572 15.5436 20.5572C15.2441 20.5572 14.888 20.4614 14.4853 20.2728C14.3669 20.2176 14.2316 20.1897 14.0824 20.1897C13.8427 20.1897 13.59 20.2603 13.3708 20.3891C13.095 20.5511 12.9168 20.78 12.8684 21.0337C12.8365 21.2016 12.8381 21.5333 13.2066 21.8698C13.4093 22.055 13.7071 22.2258 14.0914 22.3777C14.1923 22.4174 14.312 22.4553 14.4388 22.4955C14.8787 22.6354 15.5446 22.8466 15.7182 23.2553C15.8062 23.4625 15.7684 23.7352 15.606 24.0647C15.6017 24.0737 15.5975 24.0825 15.5936 24.0917C15.553 24.1865 15.1745 25.044 14.398 25.9483C13.9567 26.4626 13.4707 26.8924 12.9542 27.2261C12.3238 27.6336 11.6417 27.9 10.927 28.0177C10.6463 28.0637 10.4459 28.3138 10.4615 28.598C10.4664 28.6799 10.4856 28.7615 10.5189 28.8405C10.5191 28.841 10.5194 28.8415 10.5197 28.8419C10.6332 29.1074 10.8963 29.3329 11.324 29.5317C11.8467 29.7745 12.6285 29.9788 13.6474 30.1386C13.6988 30.2365 13.7523 30.4825 13.7893 30.651C13.828 30.83 13.8684 31.0142 13.926 31.2097C13.9881 31.4216 14.1493 31.6748 14.5632 31.6748C14.7201 31.6748 14.9005 31.6394 15.1095 31.5989C15.4154 31.5389 15.8338 31.457 16.356 31.457C16.6456 31.457 16.9456 31.4825 17.2476 31.5327C17.8298 31.6296 18.3317 31.9841 18.9124 32.3947C19.7624 32.9956 20.7245 33.6757 22.1945 33.6757C22.2346 33.6757 22.2748 33.6744 22.3145 33.6716C22.3631 33.6739 22.4233 33.6757 22.4868 33.6757C23.9572 33.6757 24.9191 32.9953 25.7681 32.395L25.7695 32.3937C26.3503 31.9836 26.8517 31.6296 27.4337 31.5327C27.7356 31.4825 28.0356 31.457 28.3252 31.457C28.8241 31.457 29.2191 31.5206 29.5718 31.5894C29.802 31.6347 29.9808 31.6565 30.1181 31.6565L30.1315 31.6567H30.1454C30.4482 31.6567 30.6707 31.4906 30.7556 31.1997C30.812 31.0083 30.8522 30.8285 30.892 30.6464C30.9266 30.4886 30.9819 30.2355 31.0333 30.1365C32.0529 29.9764 32.8343 29.7726 33.3571 29.5299C33.7839 29.3319 34.0467 29.1067 34.1608 28.8424C34.1951 28.7631 34.2151 28.681 34.2196 28.5973C34.2357 28.3137 34.0349 28.0631 33.7541 28.0171C30.5777 27.4936 29.1468 24.2299 29.0876 24.0912C29.0838 24.0821 29.0795 24.073 29.075 24.0642C28.9126 23.7346 28.8751 23.4622 28.9632 23.2546C29.1365 22.8463 29.8019 22.6351 30.2422 22.4953C30.3696 22.4552 30.4898 22.417 30.5898 22.3774C31.0232 22.2063 31.333 22.0206 31.5374 21.8097C31.7815 21.5583 31.829 21.3174 31.826 21.1597C31.8186 20.7783 31.527 20.4394 31.0633 20.2735C30.9066 20.2087 30.728 20.1745 30.5461 20.1745C30.4223 20.1745 30.2389 20.1915 30.0653 20.2726C29.6937 20.4465 29.3608 20.5415 29.0751 20.5551C28.9231 20.5474 28.8165 20.5144 28.7475 20.483C28.7562 20.3342 28.7658 20.1814 28.7757 20.022L28.7798 19.9538C28.8816 18.3412 29.0081 16.3342 28.4769 15.1427C28.1128 14.3267 27.6239 13.6249 27.0235 13.0558C26.5199 12.579 25.935 12.1925 25.2845 11.9068C24.1525 11.4101 23.0972 11.3359 22.569 11.3359Z" fill="#020202"/>
</svg>
