<svg width="27" height="27" viewBox="0 0 27 27" fill="none" xmlns="http://www.w3.org/2000/svg">
<path d="M16.1753 21.2406C16.055 21.2406 15.9238 21.2078 15.8144 21.1531C15.4097 20.9453 15.2457 20.4531 15.4425 20.0484L17.7832 15.3781C17.9253 15.1047 18.2097 14.9297 18.516 14.9297C18.8222 14.9297 19.1066 15.1047 19.2488 15.389L21.5894 20.0594C21.7972 20.4641 21.6332 20.9562 21.2175 21.164C20.8128 21.3718 20.3207 21.2078 20.1129 20.7922L18.516 17.5875L16.9191 20.7922C16.766 21.0765 16.4707 21.2406 16.1753 21.2406Z" fill="#FEC84D"/>
<path d="M20.432 20.4102H16.582C16.1336 20.4102 15.7617 20.0383 15.7617 19.5898C15.7617 19.1414 16.1336 18.7695 16.582 18.7695H20.432C20.8805 18.7695 21.2523 19.1414 21.2523 19.5898C21.2523 20.0383 20.8914 20.4102 20.432 20.4102Z" fill="#FEC84D"/>
<path d="M18.5055 24.882C14.9945 24.882 12.1289 22.0273 12.1289 18.5054C12.1289 14.9835 14.9836 12.1289 18.5055 12.1289C22.0164 12.1289 24.882 14.9835 24.882 18.5054C24.882 22.0273 22.0273 24.882 18.5055 24.882ZM18.5055 13.7804C15.8914 13.7804 13.7695 15.9023 13.7695 18.5164C13.7695 21.1304 15.8914 23.2523 18.5055 23.2523C21.1086 23.2523 23.2414 21.1304 23.2414 18.5164C23.2414 15.9023 21.1195 13.7804 18.5055 13.7804Z" fill="#FEC84D"/>
<path d="M5.31563 13.8918C4.10156 13.8918 3.13906 13.5527 2.46094 12.8965C1.73906 12.1965 1.36719 11.1355 1.36719 9.76836V5.48088C1.36719 2.82307 2.83282 1.35742 5.49063 1.35742H9.77813C11.1453 1.35742 12.1953 1.71836 12.9063 2.45117C13.5953 3.16211 13.9344 4.19028 13.9016 5.50278V9.76836C13.9344 11.1027 13.5953 12.1528 12.8844 12.8637C12.1734 13.5746 11.1234 13.9027 9.76718 13.8809H5.50156C5.425 13.8918 5.37031 13.8918 5.31563 13.8918ZM5.49063 3.009C3.72969 3.009 3.00781 3.73089 3.00781 5.49183V9.77931C3.00781 10.6871 3.20468 11.3433 3.59843 11.7262C3.98124 12.098 4.59376 12.2621 5.45782 12.2512H9.76718C10.6859 12.2731 11.3203 12.0871 11.7031 11.7043C12.0859 11.3215 12.2609 10.6762 12.2391 9.79026V5.48088C12.2609 4.60588 12.0859 3.98241 11.7141 3.5996C11.3313 3.20585 10.675 3.009 9.76718 3.009H5.49063Z" fill="#FEC84D"/>
<path d="M9.84297 7.21875H5.40234C4.95391 7.21875 4.58203 6.84687 4.58203 6.39844C4.58203 5.95 4.95391 5.57812 5.40234 5.57812H9.84297C10.2914 5.57812 10.6633 5.95 10.6633 6.39844C10.6633 6.84687 10.3023 7.21875 9.84297 7.21875Z" fill="#FEC84D"/>
<path d="M7.63477 7.21835C7.18633 7.21835 6.81445 6.84648 6.81445 6.39804V5.6543C6.81445 5.20586 7.18633 4.83398 7.63477 4.83398C8.0832 4.83398 8.45508 5.20586 8.45508 5.6543V6.39804C8.45508 6.84648 8.0832 7.21835 7.63477 7.21835Z" fill="#FEC84D"/>
<path d="M5.40234 10.6742C4.95391 10.6742 4.58203 10.3023 4.58203 9.85389C4.58203 9.40545 4.95391 9.03358 5.40234 9.03358C6.79141 9.03358 7.91797 7.85234 7.91797 6.38672C7.91797 5.93828 8.28985 5.56641 8.73828 5.56641C9.18672 5.56641 9.5586 5.93828 9.5586 6.38672C9.5586 8.74922 7.69922 10.6742 5.40234 10.6742Z" fill="#FEC84D"/>
<path d="M9.85576 10.6742C8.83857 10.6742 7.86514 10.1601 7.17608 9.2523C6.90264 8.89136 6.97921 8.37724 7.34015 8.1038C7.70109 7.83037 8.21514 7.90696 8.48857 8.26789C8.86045 8.77102 9.35264 9.04448 9.85576 9.04448C10.3042 9.04448 10.6761 9.41636 10.6761 9.86479C10.6761 10.3132 10.3042 10.6742 9.85576 10.6742Z" fill="#FEC84D"/>
<path d="M9.84375 24.8828C5.17344 24.8828 1.36719 21.0766 1.36719 16.4062C1.36719 15.9578 1.73906 15.5859 2.1875 15.5859C2.63594 15.5859 3.00781 15.9578 3.00781 16.4062C3.00781 19.6438 5.26094 22.3563 8.29063 23.0672L7.99531 22.575C7.76562 22.1813 7.88595 21.6781 8.2797 21.4484C8.66251 21.2187 9.17657 21.3391 9.40626 21.7328L10.5547 23.6469C10.7078 23.8984 10.7078 24.2156 10.5656 24.4672C10.4125 24.7187 10.1391 24.8828 9.84375 24.8828Z" fill="#FEC84D"/>
<path d="M24.0635 10.6641C23.6151 10.6641 23.2432 10.2922 23.2432 9.84375C23.2432 6.60625 20.9901 3.89372 17.9604 3.18278L18.2557 3.67498C18.4854 4.06873 18.3651 4.57189 17.9713 4.80158C17.5885 5.03127 17.0744 4.91094 16.8448 4.51719L15.6963 2.60313C15.5432 2.35157 15.5432 2.03438 15.6854 1.78282C15.8276 1.52032 16.101 1.36719 16.3963 1.36719C21.0666 1.36719 24.8729 5.17344 24.8729 9.84375C24.8838 10.2922 24.512 10.6641 24.0635 10.6641Z" fill="#FEC84D"/>
</svg>
