<svg width="28" height="28" viewBox="0 0 28 28" fill="none" xmlns="http://www.w3.org/2000/svg">
<path d="M24.1863 7.09413C23.7198 6.8438 22.7412 6.58208 21.4099 7.51515L19.7372 8.69856C19.612 5.15971 18.0759 3.77148 14.3436 3.77148H7.5162C3.6246 3.77148 2.11121 5.28488 2.11121 9.17648V18.2796C2.11121 20.8968 3.53357 23.6846 7.5162 23.6846H14.3436C18.0759 23.6846 19.612 22.2964 19.7372 18.7575L21.4099 19.941C22.1154 20.4416 22.7298 20.6009 23.2191 20.6009C23.6402 20.6009 23.9701 20.4758 24.1863 20.362C24.6529 20.123 25.438 19.4744 25.438 17.8472V9.60888C25.438 7.98169 24.6529 7.33309 24.1863 7.09413ZM12.6367 13.0226C11.4647 13.0226 10.4975 12.0667 10.4975 10.8833C10.4975 9.69991 11.4647 8.74408 12.6367 8.74408C13.8088 8.74408 14.776 9.69991 14.776 10.8833C14.776 12.0667 13.8088 13.0226 12.6367 13.0226Z" fill="#EFE5E5"/>
</svg>
