<svg width="44" height="43" viewBox="0 0 44 43" fill="none" xmlns="http://www.w3.org/2000/svg">
<g clip-path="url(#clip0_175_188)">
<path d="M43.5 32.0944C43.5 32.33 43.4926 32.838 43.4779 33.2356C43.4411 34.2002 43.3675 35.4445 43.2497 36.0115C43.0729 36.8656 42.8152 37.6682 42.4692 38.3382C42.0642 39.1334 41.5488 39.8403 40.9303 40.4514C40.3192 41.0625 39.6123 41.5779 38.8171 41.9829C38.1471 42.3289 37.3372 42.5867 36.4757 42.7634C35.9161 42.8738 34.6791 42.9548 33.7219 42.9843C33.3243 42.999 32.8163 43.0063 32.5807 43.0063H11.4046C11.169 43.0063 10.661 42.999 10.2634 42.9843C9.2988 42.9474 8.05445 42.8738 7.4875 42.756C6.63339 42.5793 5.83082 42.3216 5.16079 41.9755C4.36558 41.5706 3.65873 41.0551 3.0476 40.4367C2.43647 39.8255 1.92106 39.1187 1.5161 38.3235C1.17003 37.6534 0.912329 36.8435 0.735616 35.982C0.625171 35.4224 0.544178 34.1855 0.514726 33.2283C0.507363 32.838 0.5 32.33 0.5 32.0944V10.9183C0.5 10.6827 0.507363 10.1747 0.522089 9.77707C0.558904 8.81251 0.632534 7.56816 0.750342 7.00121C0.927055 6.1471 1.18476 5.34453 1.53082 4.6745C1.93579 3.87929 2.4512 3.17244 3.06233 2.56131C3.67346 1.95018 4.38031 1.43477 5.17551 1.02981C5.84555 0.683745 6.65548 0.426039 7.51695 0.249327C8.07654 0.138882 9.31353 0.0578888 10.2707 0.0284367C10.6683 0.0137107 11.1764 0.00634766 11.412 0.00634766H32.588C32.8236 0.00634766 33.3317 0.0137107 33.7293 0.0284367C34.6938 0.0652518 35.9382 0.138882 36.5051 0.25669C37.3592 0.433402 38.1618 0.691108 38.8318 1.03717C39.6271 1.44214 40.3339 1.95755 40.945 2.57604C41.5562 3.18717 42.0716 3.89402 42.4765 4.68922C42.8226 5.35926 43.0803 6.16919 43.257 7.03066C43.3675 7.59025 43.4485 8.82724 43.4779 9.78443C43.4926 10.182 43.5 10.6901 43.5 10.9257V32.0944Z" fill="url(#paint0_linear_175_188)"/>
<path fill-rule="evenodd" clip-rule="evenodd" d="M33.3096 10.2998C30.4159 7.40612 26.5651 5.80835 22.4639 5.80835C14.0111 5.80835 7.14145 12.6854 7.13408 21.1308C7.13408 23.833 7.84093 26.469 9.181 28.7883L7.00891 36.733L15.1377 34.6051C17.376 35.8274 19.8942 36.4679 22.4639 36.4679H22.4712C30.9166 36.4679 37.7937 29.5909 37.801 21.1455C37.801 17.0443 36.2033 13.1935 33.3096 10.2998ZM22.4712 33.8762C20.1813 33.8762 17.9356 33.2577 15.9844 32.1017L15.5206 31.8292L10.6978 33.0957L11.9863 28.3981L11.6844 27.9195C10.4106 25.8947 9.73323 23.5459 9.73323 21.1381C9.73323 14.1138 15.4543 8.40013 22.4786 8.40013C25.8803 8.40013 29.0832 9.72547 31.4836 12.1332C33.8913 14.5409 35.2166 17.7438 35.2093 21.1455C35.2019 28.1625 29.4882 33.8762 22.4712 33.8762ZM29.4587 24.3411C29.0759 24.1496 27.1909 23.2219 26.8449 23.0967C26.4914 22.9715 26.2411 22.9053 25.9834 23.2881C25.7257 23.671 24.9968 24.5325 24.7685 24.7902C24.5476 25.0479 24.3194 25.0774 23.9365 24.8859C23.5536 24.6945 22.3166 24.2895 20.8587 22.9863C19.7175 21.9702 18.9517 20.7185 18.7308 20.3356C18.5099 19.9527 18.7087 19.7465 18.9002 19.5551C19.0695 19.3857 19.2831 19.106 19.4745 18.8851C19.6659 18.6642 19.7322 18.5022 19.8574 18.2445C19.9825 17.9868 19.9236 17.7659 19.8279 17.5744C19.7322 17.383 18.9664 15.4981 18.6498 14.7323C18.3406 13.9887 18.024 14.0844 17.7884 14.077C17.5675 14.0623 17.3098 14.0623 17.0521 14.0623C16.7944 14.0623 16.382 14.158 16.0286 14.5409C15.6752 14.9238 14.6885 15.8515 14.6885 17.7364C14.6885 19.6214 16.0581 21.44 16.2495 21.6977C16.4409 21.9554 18.9517 25.821 22.7952 27.4777C23.7082 27.8753 24.4224 28.1109 24.982 28.2876C25.9024 28.5822 26.7344 28.538 27.3971 28.4423C28.1334 28.3318 29.6649 27.5145 29.9815 26.6236C30.2981 25.7327 30.2981 24.9595 30.2024 24.8049C30.092 24.6282 29.8416 24.5325 29.4587 24.3411Z" fill="#CACACA"/>
</g>
<defs>
<linearGradient id="paint0_linear_175_188" x1="22.0016" y1="43.0096" x2="22.0016" y2="0.00634766" gradientUnits="userSpaceOnUse">
<stop stop-color="#25CF43"/>
<stop offset="1" stop-color="#61FD7D"/>
</linearGradient>
<clipPath id="clip0_175_188">
<rect width="43" height="43" fill="white" transform="translate(0.5 0.00634766)"/>
</clipPath>
</defs>
</svg>
